<svg id="Layer_1" data-name="Layer 1" xmlns="http://www.w3.org/2000/svg" xmlns:xlink="http://www.w3.org/1999/xlink" viewBox="0 0 400 300"><defs><linearGradient id="linear-gradient" x1="225.73" y1="224.35" x2="200.46" y2="193.04" gradientUnits="userSpaceOnUse"><stop offset="0" stop-color="#ffd62c"/><stop offset="0.99" stop-color="#fbb03b"/></linearGradient><linearGradient id="linear-gradient-2" x1="110.71" y1="241.72" x2="85.27" y2="210.21" xlink:href="#linear-gradient"/><linearGradient id="linear-gradient-3" x1="334.97" y1="195.55" x2="325.14" y2="183.37" xlink:href="#linear-gradient"/><linearGradient id="linear-gradient-4" x1="201.02" y1="270.09" x2="187.93" y2="253.88" xlink:href="#linear-gradient"/><linearGradient id="linear-gradient-5" x1="256.49" y1="232.78" x2="231.63" y2="201.98" xlink:href="#linear-gradient"/></defs><title>-</title><path d="M230.65,93l131,75.5a5.32,5.32,0,0,1,0,9.22L176.84,283.81a14.88,14.88,0,0,1-14.52.16L34.87,214.56a5.32,5.32,0,0,1-.12-9.28l197.7-114.4" fill="#ffd62c"/><path d="M250.11,209.2l-37.66-23.66-38.32,20.23L215.68,231C225.05,224.9,241,215.7,250.11,209.2Z" fill="url(#linear-gradient)"/><path d="M129,231.53,87.8,210,65,218l44.71,26.3C119.11,238.15,119.88,238,129,231.53Z" fill="url(#linear-gradient-2)"/><polyline points="306.13 195.4 319.96 201.67 353.22 182.58 335.77 173.87" fill="url(#linear-gradient-3)"/><polyline points="160.58 271.53 175.48 279.33 227.34 251.18 205.8 241.49" fill="url(#linear-gradient-4)"/><path d="M278.05,219.83l-37.78-24-32.13,16.67,41.55,25.25C259.07,231.69,269,226.33,278.05,219.83Z" fill="url(#linear-gradient-5)"/><path d="M183.5,175.26l29.85,11.2s1.25.81.45,2.75c-.46,1.11-2.93,2.71-2.93,2.71l-25.77,15a14.86,14.86,0,0,1-4.44,1.2c-2.06.12-5.51-1.55-5.51-1.55l-24-13.9Z" fill="#34323d"/><path d="M183.93,173.87l28.52,11.66s2,1.09,1.47,2.57a6.16,6.16,0,0,1-2.55,2.59l-25.84,14.85a14.86,14.86,0,0,1-4.44,1.2c-2.06.12-5.51-1.55-5.51-1.55l-22.73-12.93Z" fill="#414cd8"/><path d="M116.48,213.13a2.75,2.75,0,0,1-3.19-.77s-.56-.11-.56-2.56V96.09a7,7,0,0,1,2.49-5.14,82.23,82.23,0,0,1,8.7-5.32L250.26,12.69l1.42-.72a2.23,2.23,0,0,1,2.82.72,4.54,4.54,0,0,1,.62,2.07c.05,1.19,0,12.68,0,12.68v102.3a7.07,7.07,0,0,1-2.3,5.22Z" fill="#5f66fc"/><path d="M115,195.89V97.78c0-3.26.45-5.08,3-6.44L251.29,14.15a1.76,1.76,0,0,1,2.81,1.42l-.33,100.88Z" fill="#25c2a0"/><path d="M161.48,143.48l3.51-6.1a.49.49,0,0,1,.09-.11.38.38,0,0,1,.1-.09l1.87-1v-.95a.41.41,0,0,1,0-.09.46.46,0,0,1,.21-.44l1.75-1c.29-.16.29.38,0,.54l-1.53.85v1a.46.46,0,0,1-.18.35.41.41,0,0,1-.16.18l-1.9,1.06-3.46,6C161.59,144,161.28,143.84,161.48,143.48Z" fill="#1a1f2b"/><path d="M162.08,144.05l8.6-4.75c.29-.16.28.38,0,.54l-8.6,4.74C161.79,144.75,161.79,144.21,162.08,144.05Z" fill="#1a1f2b"/><path d="M161.47,146l3.46,2.25a.12.12,0,0,0,.09,0,.18.18,0,0,0,.1,0l1.86-1v.95a.23.23,0,0,0,0,.08c0,.16,0,.29.21.2l1.75-1c.29-.16.29-.7,0-.54l-1.52.83v-1c0-.15-.08-.18-.17-.15s-.09,0-.16,0l-1.9,1-3.41-2.22C161.59,145.35,161.27,145.91,161.47,146Z" fill="#1a1f2b"/><path d="M152.52,148.81,149,146.62a.12.12,0,0,0-.09,0,.19.19,0,0,0-.1,0l-1.87,1v-.93a.22.22,0,0,0,0-.08c0-.16,0-.29-.21-.2l-1.75,1c-.29.16-.29.69,0,.53l1.53-.85v1c0,.14.08.18.17.15s.09,0,.16,0l1.9-1.06,3.43,2.16C152.41,149.49,152.73,148.94,152.52,148.81Z" fill="#1a1f2b"/><path d="M151.92,150l-8.6,4.74c-.29.16-.29.69,0,.53l8.6-4.74C152.21,150.4,152.21,149.87,151.92,150Z" fill="#1a1f2b"/><path d="M152.52,151.34l-3.49,6a.48.48,0,0,1-.09.11.37.37,0,0,1-.1.09l-1.86,1v.93a.39.39,0,0,1,0,.09.44.44,0,0,1-.21.43L145,161c-.29.16-.29-.37,0-.53l1.52-.83v-1a.45.45,0,0,1,.17-.34.41.41,0,0,1,.16-.17l1.9-1,3.44-5.94C152.41,150.79,152.72,151,152.52,151.34Z" fill="#1a1f2b"/><path d="M155.19,136.94c0-.18,0-.34-.2-.24l-1,.57v-1.34c0-.34-.45-.09-.45.25v1.54c0,.18.12.19.24.12a.14.14,0,0,0,.16,0l.85-.48v4.09c0,.34.45.09.45-.25V137A.23.23,0,0,0,155.19,136.94Z" fill="#1a1f2b"/><path d="M154.37,135a1.59,1.59,0,0,1-.73,1.26c-.4.22-.72,0-.72-.45a1.59,1.59,0,0,1,.73-1.26C154,134.33,154.37,134.53,154.37,135Z" fill="#1a1f2b"/><path d="M160.12,134.19a.45.45,0,0,1,.21-.47l1-.57v-1.35c0-.34.45-.6.45-.25v1.55a.46.46,0,0,1-.24.39.41.41,0,0,1-.16.17l-.85.48,0,4.11c0,.34-.45.59-.45.25l0-4.18A.41.41,0,0,1,160.12,134.19Z" fill="#1a1f2b"/><path d="M161,131.3c0,.47.32.68.72.45a1.6,1.6,0,0,0,.73-1.27c0-.48-.32-.68-.72-.45A1.6,1.6,0,0,0,161,131.3Z" fill="#1a1f2b"/><path d="M163.94,142.61c0,4.21-2.89,9.19-6.41,11.11s-6.36.1-6.35-4.07a14,14,0,0,1,6.41-11.11C161.13,136.58,164,138.4,163.94,142.61Z" fill="#f16866"/><path d="M163.11,139.27c-1.09-1.66-3.15-2-5.51-.72a13.63,13.63,0,0,0-5.54,6.85l5.39-3,0,11.12c0,.34.45.1.45-.24l0-11.13Z" fill="#7c2828"/><path d="M161.2,142.1c.41.26.4,1.05,0,1.76s-1.07,1.08-1.48.82-.4-1,0-1.76S160.8,141.84,161.2,142.1Z" fill="#7c2828"/><path d="M161.92,146.2c.41.26.4,1.05,0,1.77s-1.07,1.07-1.48.81-.4-1.05,0-1.76S161.51,145.94,161.92,146.2Z" fill="#7c2828"/><path d="M155.54,145.23c.41.26.4,1,0,1.76s-1.07,1.08-1.48.82-.4-1,0-1.75S155.13,145,155.54,145.23Z" fill="#7c2828"/><path d="M154.93,150c.41.26.4,1,0,1.76s-1.07,1.07-1.48.81-.4-1,0-1.75S154.52,149.79,154.93,150Z" fill="#7c2828"/><path d="M158.14,138.29c2.42.84,3.88,3.39,3.43,7.39a16.45,16.45,0,0,1-3,7.36,14.24,14.24,0,0,0,5.35-10.41C164,138.63,161.41,136.79,158.14,138.29Z" fill="#6b1a1a" opacity="0.39"/><path d="M200.86,84.15l7.79-13.52a1.1,1.1,0,0,1,.2-.25.84.84,0,0,1,.23-.2l4.14-2.3V65.77a.9.9,0,0,1,0-.21,1,1,0,0,1,.47-1l3.89-2.16c.64-.36.63.84,0,1.19l-3.39,1.88,0,2.26a1,1,0,0,1-.39.77.92.92,0,0,1-.36.39l-4.22,2.34L201.55,84.6C201.1,85.39,200.4,84.94,200.86,84.15Z" fill="#1a1f2b"/><path d="M202.18,85.41l19.07-10.53c.64-.35.63.84,0,1.2L202.17,86.59C201.53,86.95,201.54,85.76,202.18,85.41Z" fill="#1a1f2b"/><path d="M200.83,89.81l7.67,5a.27.27,0,0,0,.2,0,.4.4,0,0,0,.23-.06L213,92.53v2.11a.52.52,0,0,0,0,.17c0,.36.1.65.46.45l3.87-2.12c.64-.35.65-1.54,0-1.19L214,93.79l0-2.26c0-.32-.18-.41-.38-.34s-.2-.08-.36,0l-4.21,2.31-7.55-4.92C201.08,88.29,200.38,89.52,200.83,89.81Z" fill="#1a1f2b"/><path d="M181,96l-7.71-4.86a.27.27,0,0,0-.2,0,.41.41,0,0,0-.23.06l-4.14,2.3V91.35a.49.49,0,0,0,0-.17c0-.35-.1-.64-.46-.44l-3.89,2.16c-.64.36-.64,1.53,0,1.17l3.39-1.88v2.22c0,.32.18.39.38.33s.2.08.36,0l4.22-2.34,7.6,4.79C180.73,97.46,181.43,96.24,181,96Z" fill="#1a1f2b"/><path d="M179.64,98.67l-19.07,10.52c-.64.35-.64,1.52,0,1.17l19.07-10.51C180.28,99.5,180.28,98.32,179.64,98.67Z" fill="#1a1f2b"/><path d="M181,101.58,173.23,115a1.07,1.07,0,0,1-.2.25.83.83,0,0,1-.23.19l-4.13,2.26v2.07a.87.87,0,0,1,0,.2,1,1,0,0,1-.46.95L164.3,123c-.64.35-.64-.82,0-1.17l3.38-1.85v-2.22a1,1,0,0,1,.38-.75.9.9,0,0,1,.36-.39l4.21-2.31,7.63-13.18C180.72,100.34,181.42,100.79,181,101.58Z" fill="#1a1f2b"/><path d="M186.89,69.64c.09-.39-.06-.75-.45-.53l-2.27,1.27v-3c0-.76-1-.2-1,.56v3.42c0,.39.27.43.52.27a.31.31,0,0,0,.35,0l1.89-1.06,0,9.08c0,.76,1,.21,1-.55l0-9.23A.51.51,0,0,0,186.89,69.64Z" fill="#1a1f2b"/><path d="M185.07,65.32a3.53,3.53,0,0,1-1.61,2.8c-.89.5-1.6.05-1.6-1a3.53,3.53,0,0,1,1.61-2.8C184.36,63.83,185.07,64.27,185.07,65.32Z" fill="#1a1f2b"/><path d="M197.83,63.52a1,1,0,0,1,.46-1l2.27-1.27,0-3c0-.76,1-1.32,1-.56l0,3.44A1,1,0,0,1,201,62a.92.92,0,0,1-.35.37l-1.89,1.06,0,9.13c0,.76-1,1.32-1,.55l0-9.27A.92.92,0,0,1,197.83,63.52Z" fill="#1a1f2b"/><path d="M199.69,57.12c0,1.05.71,1.5,1.59,1a3.55,3.55,0,0,0,1.61-2.81c0-1.05-.71-1.51-1.59-1A3.56,3.56,0,0,0,199.69,57.12Z" fill="#1a1f2b"/><path d="M206.31,82.21c-.06,9.34-6.42,20.38-14.22,24.64s-14.1.23-14.08-9,6.39-20.28,14.22-24.64S206.37,72.86,206.31,82.21Z" fill="#f16866"/><path d="M204.46,74.79c-2.42-3.68-7-4.52-12.22-1.6s-9.82,8.83-12.29,15.2l12-6.64-.1,24.67c0,.76,1,.22,1-.54l.11-24.68Z" fill="#7c2828"/><path d="M200.24,81.07c.9.58.89,2.33,0,3.91s-2.38,2.39-3.28,1.81-.89-2.33,0-3.91S199.33,80.49,200.24,81.07Z" fill="#7c2828"/><path d="M201.82,90.17c.9.58.89,2.34,0,3.92s-2.38,2.38-3.28,1.8-.89-2.33,0-3.91S200.92,89.59,201.82,90.17Z" fill="#7c2828"/><path d="M187.67,88c.9.57.9,2.32,0,3.9s-2.38,2.39-3.28,1.81-.9-2.31,0-3.89S186.77,87.45,187.67,88Z" fill="#7c2828"/><path d="M186.32,98.71c.9.58.9,2.32,0,3.89s-2.37,2.38-3.28,1.8-.9-2.32,0-3.89S185.42,98.13,186.32,98.71Z" fill="#7c2828"/><path d="M193.44,72.62c5.37,1.87,8.6,7.52,7.6,16.39a36.48,36.48,0,0,1-6.59,16.32c6.68-5,11.81-14.72,11.86-23.1C206.37,73.37,200.7,69.3,193.44,72.62Z" fill="#6b1a1a" opacity="0.39"/><path d="M237.78,197.67s-6.05-2.69-7.51-2.8-3.89.39-1.77,3.06c0,0,6.36,4.16,7.2,4.29s2.88-.51,2.93-.29.24,1.83.24,1.83,5.32,2,5.55-1.53c0-.46-.77-7.07-.77-7.07" fill="#e55600"/><path d="M244.72,182.08c-1.05-6.84-3-13.47-3.78-20.39-.5-4.35-.86-8.73-1.4-13.08s-2.16-8.56-3.2-12.87a.47.47,0,0,1,.22-.53c0-.15-.09-.3-.14-.45-.54-.51-1.09-1-1.62-1.46l-7.44,5s0,4.55.28,11.16c.86,3.85,1.52,7.28,2.5,10.93a1,1,0,0,0-.23.87,309,309,0,0,1,5.28,34.8,1,1,0,0,0,.66.87l.21,1.8c6.47,2.5,7.89-1.85,7.89-1.85s.29-3.71.66-8.85C244.73,186,244.76,184.05,244.72,182.08Z" fill="#34323d"/><path d="M201.94,116.61l-.16.09a.83.83,0,0,0-.62-1.19c-.38-.05-.76-.07-1.14-.12a.73.73,0,0,0-.12-.1,2.25,2.25,0,0,0-.44-.2.71.71,0,0,0-.65-.2l-.28,0c-.32,0-.65,0-1,0l-1.16,0a.81.81,0,0,0-.21-.25,50.51,50.51,0,0,1-5.32-5c-.59-.59-1.78.06-1.3.86a17.19,17.19,0,0,0,1.69,2.61c-2-1.35-2.93-1.55-4.78-3.06-.78-.64-1.65.67-.87,1.31.47.38,2.21,1.26,2.69,1.63-.87-.53-3-1.56-3.89-2.08s-1.75.79-.87,1.31c1.4.82,2.78,1.67,4.16,2.53-1.18-.44-2.34-.92-3.48-1.45-.92-.43-1.42,1.06-.51,1.49,1.31.61,2.65,1.15,4,1.64a15.91,15.91,0,0,1-2.38-.21c-1-.18-1.11,1.39-.12,1.57.82.15,1.64.24,2.47.33l1.24.14a4.77,4.77,0,0,1,1.41.32,17.41,17.41,0,0,0,5.28,1.1l.36.13a.69.69,0,0,0,.68-.09,11.48,11.48,0,0,0,6-1.69C203.48,117.49,202.8,116.08,201.94,116.61Z" fill="#fcbf81"/><path d="M215.05,104.64c.09-.32-4.62,0-5,0a69.23,69.23,0,0,1-7.5-.43.47.47,0,0,0-.23,0,11.82,11.82,0,0,0-1.43-.09.56.56,0,0,0-.33,1,6.52,6.52,0,0,0,3.57,1.21c.11.39.22.82.37,1.22a.23.23,0,0,1,.26.07,1.69,1.69,0,0,1,.28.51,1.21,1.21,0,0,1,.12.37.27.27,0,0,1,0,.16,1.75,1.75,0,0,0,1.44.49,2.23,2.23,0,0,0,1.29.94h.08l.08,0a16.32,16.32,0,0,1,2.22-.94.25.25,0,0,1,.3.28,14.62,14.62,0,0,0,1.44-1,.47.47,0,0,0,.19-.33l.29-.07a.57.57,0,0,0,.3-.92.65.65,0,0,0-.15-.13l.3,0a.64.64,0,0,0,1-.05.65.65,0,0,0,0-.88.76.76,0,0,0-.21-.15l.78,0a.15.15,0,0,0,.11-.26.13.13,0,0,0,0-.07,8.71,8.71,0,0,1,1.3.12C220.87,105.54,215.22,104.66,215.05,104.64Zm-1.42,2a.35.35,0,0,1-.46.12.58.58,0,0,0,.18-.45h0a.15.15,0,0,0,.11-.2l0,0A.35.35,0,0,1,213.63,106.67Z" fill="#fcbf81"/><path d="M214.57,105.22a6.07,6.07,0,0,1-2.24.35,1.17,1.17,0,0,0-1.25,1.12,6.84,6.84,0,0,1-.82-.44c-1.34-.82-2.68,1.24-1.33,2.07a6,6,0,0,0,3.47,1.08,10,10,0,0,0,3.43-1,6,6,0,0,0,.19-2.22A1.24,1.24,0,0,0,214.57,105.22Z" fill="#fcbf81"/><path d="M213.12,108.77a4.31,4.31,0,0,1-5.06-1,.14.14,0,0,0-.11-.05h0l-1.67-.08c-.25,0-.5,0-.75,0-.42-.06-1.81-.69-.7-1.27a5.78,5.78,0,0,1,1.69-.1c.55,0,1.1,0,1.65,0,.2,0,.21-.31,0-.31-1,0-2,0-3.05.09-.47,0-1,.06-1,.63a1,1,0,0,0,.58,1c.2.36.23.85.55,1.13a2.1,2.1,0,0,0,1.22.34h.27a.15.15,0,0,0,0,.09c.31.4.57.95,1.15.89a2.29,2.29,0,0,0,.67-.22l1.08-.47a.14.14,0,0,0,.07-.2,5,5,0,0,0,3.57-.2C213.44,109,213.3,108.7,213.12,108.77Zm-7.1,0a.93.93,0,0,1-.84-.6c-.05-.12-.09-.24-.13-.35a11.66,11.66,0,0,0,2.83.21l.07.08a.14.14,0,0,0-.1.13C207.81,109,206.52,108.88,206,108.8Zm2.15.95a.64.64,0,0,1-.75-.09,3.38,3.38,0,0,1-.4-.51c.54,0,1.07-.24,1.13-.82a4.29,4.29,0,0,0,1.33.84C209,109.36,208.61,109.57,208.17,109.75Z" fill="#34323d"/><path d="M231.12,103.07c-.84-.29-19.31,1.95-20.81,1.6a8.31,8.31,0,0,0,5.28,7.74s13.47,2.72,17.69.58" fill="#5f66fc"/><path d="M224.54,207.62l-3.6,1.29a2,2,0,0,1-1.45,1.32.8.8,0,0,1-.5.28,9.42,9.42,0,0,1-4.27-.69c-1.72-.54-8.44-3.11-6.58,1.71,1.23.86,2.6,1.61,3.85,2.37.71.43,1.41.86,2.14,1.26a4.25,4.25,0,0,0,1.26.58c1,.15,3.31-.58,3.37-.33s.28,2.1.28,2.1,6.12,2.34,6.39-1.76C225.46,215.21,224.54,207.62,224.54,207.62Z" fill="#e55600"/><path d="M229.59,170.84c.75-12.09,1.16-24.26,3.72-36.14.11-3.09,2.11-1.12,2-2.34-1.09-9.95-15.58,1.89-15.58,1.89-.59.48-.66,3.53-.78,4.22q-1,5.73-1.68,11.5c-2.4,19.42-1.51,38.75-.53,58.23,3.08,3.15,5.09,4.09,10.05,2.06,1-12.75,1.93-25.5,2.75-38.27Z" fill="#34323d"/><path d="M237.81,125.11a126.13,126.13,0,0,0,.39-18c-.11-1.57-.54-5.43-2.11-6.34-3.45-2-8.25-.21-11.16,1.93-3.88,2.86-6.12,29.46-6.13,36,5.34,2.11,12.32,2.91,17.78.65.48-.2.59-6.73.66-7.54C237.43,129.62,237.63,127.37,237.81,125.11Z" fill="#8b93fc"/><path d="M226.75,116.44a9.22,9.22,0,0,1-6.78,8.1c0,.37-.12,2.67-.15,3,4.36-1,7.57-6.51,8-11.14C227.91,115.74,226.81,115.74,226.75,116.44Z" fill="#34323d"/><path d="M223.43,92c-.34.16-2,7.61-.06,11.58s8.26-1.69,9.44-5.21S229.83,89,223.43,92Z" fill="#fcbf81"/><path d="M223.71,92.94a3.36,3.36,0,0,0,2.56,2.63c2.13.36,3.87.54,3.94,1.48s-3.62.55-3.23,2.66a16,16,0,0,0,1.36,4.09c.41,1,5.78-3.3,6.73-9.07s-4.25-6.26-4.5-6.26A5.09,5.09,0,0,0,227.09,87c-2.52-.07-3,1-3,1a3,3,0,0,0-3.46,1.05c-1.89,2.19-.71,5.31,2.05,6.15Z" fill="#e55600"/><path d="M226.76,106.47s-12.51,7.17-17,7.17a99,99,0,0,1-13-1.64c-3.1,2.63-3.3,7.22-1.38,10.74,5.46.89,21.64,3.22,26.72.7,6.14-3,12.9-7.12,12.9-7.12S241.07,110.33,226.76,106.47Z" fill="#8b93fc"/><polygon points="272.08 153.33 306.13 137.39 339.62 153.33 306.13 170.56 272.08 153.33" fill="#c63c3c"/><polygon points="307.07 151.38 315.4 146.9 319.96 149.14 308.49 155.54 307.07 151.38" fill="#36353a"/><polygon points="272.08 153.33 306.13 170.56 306.13 195.4 272.08 178.58 272.08 153.33" fill="#f16866"/><polygon points="306.13 170.56 339.62 153.33 339.62 177.79 306.13 195.4 306.13 170.56" fill="#ff8d8d"/><polygon points="272.08 153.33 289.1 140.53 322.87 157.98 306.13 170.56 272.08 153.33" fill="#ff8d8d"/><polygon points="291.19 139.12 306.13 137.39 339.62 153.33 337.01 154.67 325.62 156.41 291.19 139.12" fill="#f16866"/><polygon points="217.44 251.18 217.44 244.57 222.43 242.13 222.43 248.64 217.44 251.18" fill="#494443"/><polygon points="222.43 242.13 199.04 229.43 194.26 232.27 217.44 244.57 222.43 242.13" fill="#666"/><polyline points="194.26 232.27 194.26 239.49 217.44 251.18 217.44 244.57" fill="#494443"/><path d="M210.59,245.51a3.65,3.65,0,0,0-.49-.94,9.5,9.5,0,0,0-2.06-1.82c-.74-.43-1.52-.81-2.25-1.26-.43-.27-.85-.56-1.28-.82s-1-.48-1.5-.7c-1.18-.3-2.65.82-3.69,1.42L195,243.84l-6.52,3.69-7.73,4.37-7.94,4.5-7.16,4.06-5.39,3.05L157.61,265a.56.56,0,0,1-.11.06,2.3,2.3,0,0,0-1.73,2.23v.27a2.31,2.31,0,0,0,1.23,2l6,3.21a2.31,2.31,0,0,0,2.6-.3l41.7-23.94.55-.32c.75-.76,2-.92,2.74-2.39C210.68,245.76,210.61,245.63,210.59,245.51Z" fill="#25c2a0"/><path d="M165.9,272.43l44.44-25.51a1,1,0,0,0,.45-1,3.64,3.64,0,0,0-.59-1.29,7.66,7.66,0,0,0-1.44-1.36L165.12,269a3.13,3.13,0,0,1,1,1.93,1.84,1.84,0,0,1-.25,1.28C165.9,272.31,165.91,272.37,165.9,272.43Z" opacity="0.5"/><polygon points="55.6 178.91 73.96 170.32 92.02 178.91 73.96 188.2 55.6 178.91" fill="#ce3e3e"/><polygon points="74.47 177.86 78.96 175.44 81.42 176.65 75.23 180.11 74.47 177.86"/><polygon points="55.6 178.91 73.96 188.2 74.46 223.3 55.6 212.61 55.6 178.91" fill="#f16866"/><polygon points="73.96 188.2 92.02 178.91 92.02 213.01 74.46 223.3 73.96 188.2" fill="#ff8d8d"/><polygon points="55.6 178.91 64.78 172.01 82.99 181.42 73.96 188.2 55.6 178.91" fill="#ff8d8d"/><polygon points="65.9 171.25 73.96 170.32 92.02 178.91 90.61 179.63 84.47 180.57 65.9 171.25" fill="#f16866"/><polygon points="114.2 114.63 137.37 101.07 137.37 105.19 114.2 118.73 114.2 114.63" fill="#fff"/><polygon points="137.37 101.07 137.37 105.19 133.58 107.41 133.58 103.29 137.37 101.07" fill="#f16866"/><polygon points="133.58 103.35 133.58 107.47 129.78 109.69 129.78 105.57 133.58 103.35" fill="#ffe427"/><polygon points="139.75 121.3 139.75 125.42 135.96 127.64 135.96 123.52 139.75 121.3" fill="#f16866"/><polygon points="135.96 123.58 135.96 127.7 132.16 129.92 132.16 125.8 135.96 123.58" fill="#ffe427"/><polygon points="143.55 123.14 143.55 127.26 139.75 129.48 139.75 125.36 143.55 123.14" fill="#f16866"/><polygon points="139.75 125.42 139.75 129.54 135.96 131.76 135.96 127.64 139.75 125.42" fill="#ffe427"/><polygon points="239.55 28.68 239.55 32.8 235.75 35.02 235.75 30.9 239.55 28.68" fill="#f16866"/><polygon points="235.75 30.96 235.75 35.08 231.96 37.3 231.96 33.18 235.75 30.96" fill="#ffe427"/><polygon points="243.35 30.52 243.35 34.64 239.55 36.86 239.55 32.74 243.35 30.52" fill="#f16866"/><polygon points="239.55 32.8 239.55 36.92 235.75 39.14 235.75 35.02 239.55 32.8" fill="#ffe427"/></svg>