<svg id="Layer_2" data-name="Layer 2" xmlns="http://www.w3.org/2000/svg" viewBox="0 0 400 300"><title>0</title><path d="M26.64,162.42,162.25,83.55a6.41,6.41,0,0,1,6.41,0L371.45,199.6a6.41,6.41,0,0,1,0,11.12L241.79,285.59a20.93,20.93,0,0,1-20.93,0L26.66,173.51A6.41,6.41,0,0,1,26.64,162.42Z" fill="#007f68"/><polyline points="98.89 175.35 98.89 178.64 100.55 180.68" fill="#adcee1"/><path d="M165,135.29,100.77,175.1a4,4,0,0,0,.14,6.85l97.48,55.14a8.93,8.93,0,0,0,8.92-.07l63.95-37.59c4.65-3.82,4.3-11,0-11.31l-96.92-53A9.06,9.06,0,0,0,165,135.29Z" fill="#88d3d8"/><path d="M165,132.55l-64.24,39.81a4,4,0,0,0,.14,6.85l97.48,55.14a8.93,8.93,0,0,0,8.92-.07l63.95-37.59a5,5,0,0,0,0-8.56L174.3,132.39A9.06,9.06,0,0,0,165,132.55Z" fill="#fff"/><path d="M167.63,127.11S194.31,41,194.14,41s.83-3.83,5.6-1.66L302.12,99.6s5,2,4,6.63S280,190.49,280,190.49a4.33,4.33,0,0,1-4.84,1.67c-3.12-1-105.17-60.25-105.17-60.25A3.92,3.92,0,0,1,167.63,127.11Z" fill="#25c2a0"/><polygon points="195.84 47.26 300.68 108.38 278.94 181.39 172.75 122.08 195.84 47.26" fill="#172d51"/><path d="M161.07,141.67,137.58,156.3a2.83,2.83,0,0,0,.09,4.87L222,209.23a8.29,8.29,0,0,0,8.29,0c5.42-3.16,14.75-8.85,20.46-12.35a3.45,3.45,0,0,0-.07-5.92C233.61,181,178,148.66,165.8,141.59A4.59,4.59,0,0,0,161.07,141.67Z" fill="#25c2a0"/><path d="M162.33,181.39l29.45,16.56a2.94,2.94,0,0,1,0,5.1l-17.32,10.14a3.91,3.91,0,0,1-3.91,0L140.46,196a2.46,2.46,0,0,1,0-4.27l18-10.35A3.91,3.91,0,0,1,162.33,181.39Z" fill="#25c2a0"/><path d="M161.07,141.67,137.58,156.3a2.83,2.83,0,0,0,.09,4.87L222,209.23a8.29,8.29,0,0,0,8.29,0c5.42-3.16,14.75-8.85,20.46-12.35a3.45,3.45,0,0,0-.07-5.92C233.61,181,178,148.66,165.8,141.59A4.59,4.59,0,0,0,161.07,141.67Z" fill="#053855" opacity="0.1"/><path d="M162.33,181.39l29.45,16.56a2.94,2.94,0,0,1,0,5.1l-17.32,10.14a3.91,3.91,0,0,1-3.91,0L140.46,196a2.46,2.46,0,0,1,0-4.27l18-10.35A3.91,3.91,0,0,1,162.33,181.39Z" fill="#053855" opacity="0.1"/><path d="M140.41,184.65a57.77,57.77,0,0,1-3.36-18.25c-.33-7.93,2.58-20.14,14.19-19.36,16.31,1.1,22.1,18.86,30.84,23.72s28.49-3.18,29.79,4.24-2.22,16.18-7.35,21.57c-12.34,13-36.82,12-51.36,3.52A29.44,29.44,0,0,1,140.41,184.65Z" fill="#fa6d90"/><path d="M198,197.94c-26.64,3.59-59-13.71-60.3-40.12a35.37,35.37,0,0,0-.74,8.31,57.77,57.77,0,0,0,3.36,18.25,29.44,29.44,0,0,0,12.76,15.45c14.4,8.37,38.55,9.44,51-3.17A42.19,42.19,0,0,1,198,197.94Z" fill="#d64770"/><path d="M208.78,139.75a2.67,2.67,0,0,0-1.23-2.26,2.14,2.14,0,0,0-1.25-1.74.73.73,0,0,0-.15-.05,19.93,19.93,0,0,0,1.44-3.56.95.95,0,0,0-1.79-.38,23.63,23.63,0,0,1-2.14,4.43.81.81,0,0,0-.23-.08c-1.09-.15-2-.42-2.43.85s-.65,2.44-1,3.66a.74.74,0,0,0,.61.93.86.86,0,0,0,1.07.54,1.3,1.3,0,0,0,.24.46l-.06.07a.85.85,0,0,0,.68,1.36c-.67.46-.27,1.7.6,1.39,1.69-.61,4.07-1,5.38-2.35A2.35,2.35,0,0,0,208.78,139.75Z" fill="#ffb5a9"/><path d="M203.67,142.31v0a1,1,0,0,0-.51-1.39l.16-.26a1,1,0,0,0-1.19-1.44,1,1,0,0,0-1.62.07,46.31,46.31,0,0,1-3.58,5.4,1.05,1.05,0,0,0-.12,1.12l-.26.39a.89.89,0,0,0,.45,1.36,1.12,1.12,0,0,0,.65.44c-.28.67.39,1.25,1.05,1.23a.93.93,0,0,0,1.45.11,19.34,19.34,0,0,0,3.86-5.73A1.06,1.06,0,0,0,203.67,142.31Z" fill="#ffb5a9"/><path d="M195.69,175.16c4.12-3.8,8.71-9.26,5.81-13.6-4.8-7.16-17.71,1.19-19.83,1.64-9.31,2-28.54,24-11.18,23.21a37.17,37.17,0,0,0,21.62-8.17C193.06,177.46,194.35,176.4,195.69,175.16Z" fill="#3e2928"/><path d="M195.56,175a1.62,1.62,0,0,1,.73-.92,16.07,16.07,0,0,1,5.29-1.86,1.69,1.69,0,0,1,1.6.46h0c.73-6.89-1.7-11.15-1.7-11.15l-6.46,14C195.21,175.36,195.37,175.18,195.56,175Z" fill="#3e2928"/><path d="M198.57,141.8a1.77,1.77,0,0,1-.61-.34L188.2,150a23.46,23.46,0,0,1-3.58-11.16c-.36-6.55-12.92-7.66-12.92-7.66l5.38,22.28s3.59,9,9.67,9.74c4.75.6,14.57-9.29,18.56-14.93C203.68,145.49,201.75,142.84,198.57,141.8Z" fill="#00a99d"/><path d="M165.79,123.65A33.78,33.78,0,0,0,156,138.07c-3.45,9.54,5.18,25.14,5.18,25.14l13.44-10.62" fill="#006d62"/><path d="M155.22,175.67a9.59,9.59,0,0,0,1.35,5.4,10.17,10.17,0,0,0,5.34,4.2,22.47,22.47,0,0,0,8.56,1.15c6-.39,11.17-3.17,15.54-7-.83-10.55-3.81-17.91-6.35-21.51l-16.26-7.85c.1,0-3.17,6.54-3.32,6.89a65.84,65.84,0,0,0-3.86,12.13A35.07,35.07,0,0,0,155.22,175.67Z" fill="#3e2928"/><path d="M179.37,139.64l-17.2-.79-4.3,22.72c5.13,3.54,20.72,2.18,23.79,1.64C180.71,156.34,180.1,146.53,179.37,139.64Z" fill="#00a99d"/><path d="M179.54,129.78a16.93,16.93,0,0,0,3-12.86c-.65-4.54-3.16-8.31-8-9.13-7.5-1.26-12.95,5.07-12.83,12.15.06,3.95.49,6.62-2.42,8.27s-5,6-2.24,9.48.28,2.23-1.57,5.33-1.37,7,2.43,8.4,21.45-1.23,23.07-2.88a3.37,3.37,0,0,0,.83-2.39,9.26,9.26,0,0,0-3.37-5.56,14.25,14.25,0,0,1-3.47-4.34C173.56,133.34,177.88,131.91,179.54,129.78Z" fill="#f7931e"/><polygon points="329.2 217.1 334.37 214.54 330.57 212.38 329.2 217.1" fill="#c46200"/><polyline points="302.52 150.02 308.79 146.86 308.05 151.34 304.15 152.5" fill="#c46200"/><path d="M336.84,211.61l11.87-39.86a4.8,4.8,0,0,0-2.21-5.53l-33.37-19.15a4.8,4.8,0,0,0-7,3l-10.59,41.09a4.8,4.8,0,0,0,2.31,5.38l32.09,17.92A4.8,4.8,0,0,0,336.84,211.61Z" fill="#c46200"/><path d="M331.26,214.4l11.87-39.86a4.8,4.8,0,0,0-2.21-5.53l-33.37-19.15a4.8,4.8,0,0,0-7,3l-10.59,41.09a4.8,4.8,0,0,0,2.31,5.38l32.09,17.92A4.8,4.8,0,0,0,331.26,214.4Z" fill="#f7931e"/><polygon points="313.19 175.74 312 179.29 304.16 179.72 309.8 185.87 308.61 189.42 299.34 179.09 300.16 176.62 313.19 175.74" fill="#fff"/><polygon points="324.51 180.53 333.77 190.87 332.95 193.33 319.93 194.22 321.12 190.66 328.95 190.23 323.32 184.09 324.51 180.53" fill="#fff"/><polygon points="321.65 176.51 324.05 177.52 312.08 193.71 309.69 192.69 321.65 176.51" fill="#fff"/><polygon points="227.79 78.77 227.79 81.46 205.31 68.39 205.31 65.77 227.79 78.77" fill="#f7931e"/><path d="M292.5,116.18,230,80.06v2.7l62,36C292.17,117.91,292.33,117,292.5,116.18Z" fill="#00a99d"/><path d="M291,124.08l-7.57-4.38v2.86l7.1,4.13Q290.81,125.39,291,124.08Z" fill="#8cc63f"/><polygon points="281.24 118.41 281.24 121.27 245.76 100.65 245.76 97.9 281.24 118.41" fill="#f7931e"/><polygon points="243.52 96.61 243.52 99.35 220.31 85.86 220.31 83.19 243.52 96.61" fill="#f15a24"/><polygon points="218.08 81.9 218.08 84.56 205.31 77.14 205.31 74.52 218.08 81.9" fill="#8cc63f"/><path d="M289.55,131.89,229.31,97.07v2.7L289,134.45C289.18,133.6,289.37,132.75,289.55,131.89Z" fill="#00a99d"/><polygon points="220.4 101.85 220.4 104.54 197.92 91.48 197.92 88.86 220.4 101.85" fill="#f7931e"/><path d="M285.12,139.27l-62.48-36.12v2.7l62,36C284.79,141,284.95,140.13,285.12,139.27Z" fill="#00a99d"/><path d="M283.66,147.17l-7.57-4.38v2.86l7.1,4.13Q283.43,148.48,283.66,147.17Z" fill="#8cc63f"/><polygon points="273.85 141.5 273.85 144.35 238.37 123.73 238.37 120.99 273.85 141.5" fill="#f7931e"/><polygon points="236.14 119.7 236.14 122.43 212.93 108.95 212.93 106.28 236.14 119.7" fill="#f15a24"/><polygon points="210.69 104.99 210.69 107.65 197.92 100.23 197.92 97.61 210.69 104.99" fill="#8cc63f"/><path d="M282.16,155l-60.24-34.82v2.7l59.68,34.68C281.8,156.69,282,155.84,282.16,155Z" fill="#00a99d"/><polygon points="188.55 84.91 192.84 82.79 189.69 80.99 188.55 84.91" fill="#066d0a"/><polyline points="166.37 29.15 171.58 26.52 170.97 30.24 167.72 31.21" fill="#066d0a"/><path d="M194.9,80.35l9.87-33.14a4,4,0,0,0-1.84-4.6L175.19,26.7a4,4,0,0,0-5.85,2.46l-8.8,34.16a4,4,0,0,0,1.92,4.48l26.68,14.9A4,4,0,0,0,194.9,80.35Z" fill="#066d0a"/><path d="M190.26,82.67l9.87-33.14a4,4,0,0,0-1.84-4.6L170.55,29a4,4,0,0,0-5.85,2.46l-8.8,34.16a4,4,0,0,0,1.92,4.48L184.5,85A4,4,0,0,0,190.26,82.67Z" fill="#139e20"/><path d="M175.08,41.95l-.95,3L173,44.38a1.24,1.24,0,0,0-1.12-.07,1.42,1.42,0,0,0-.75,1l-1.28,4.08a4.45,4.45,0,0,1-.55,1.18,2.08,2.08,0,0,1-.64.66,2.83,2.83,0,0,1-.6.27,1,1,0,0,1-.44.06l-.17,0,.14.15a3.4,3.4,0,0,1,.28.43,3,3,0,0,1,.3.73,4.11,4.11,0,0,1,.08,1,4.78,4.78,0,0,1-.23,1.36l-1.29,4.1a1.91,1.91,0,0,0,0,1.33,1.76,1.76,0,0,0,.84.94l1.14.59-1,3-1.7-.89a4.89,4.89,0,0,1-2.43-2.56,5.51,5.51,0,0,1,0-3.7L165,53.75a2,2,0,0,0,0-1.4,1.92,1.92,0,0,0-.94-1l.87-2.79a1.37,1.37,0,0,0,1.22.12,1.45,1.45,0,0,0,.77-1l1.35-4.3a4,4,0,0,1,2-2.67,3.5,3.5,0,0,1,3.13.34Z" fill="#fff"/><path d="M190,49.72a4.89,4.89,0,0,1,2.43,2.56,5.47,5.47,0,0,1,0,3.69L191,60.26a2,2,0,0,0,0,1.4,1.94,1.94,0,0,0,.94,1l-.87,2.79a1.4,1.4,0,0,0-1.21-.13,1.48,1.48,0,0,0-.78,1l-1.34,4.29a4,4,0,0,1-2,2.68,3.5,3.5,0,0,1-3.13-.34l-1.7-.89,1-3,1.13.59a1.27,1.27,0,0,0,1.12.09,1.41,1.41,0,0,0,.74-.94l1.29-4.1a4.51,4.51,0,0,1,.55-1.19,2,2,0,0,1,.64-.65,4.41,4.41,0,0,1,.59-.26.88.88,0,0,1,.46-.06l.15,0-.14-.14a4.73,4.73,0,0,1-.28-.43,2.65,2.65,0,0,1-.3-.74,4.18,4.18,0,0,1-.08-1,4.82,4.82,0,0,1,.23-1.36l1.28-4.08a2,2,0,0,0,0-1.35,1.76,1.76,0,0,0-.84-1l-1.13-.59.95-3Z" fill="#fff"/><polygon points="185.29 53.73 179.86 57.95 181.63 66.23 178.32 64.5 177.16 59.35 173.55 62.01 170.25 60.29 175.99 55.93 174.35 48.02 177.78 49.81 178.67 54.54 181.87 51.94 185.29 53.73" fill="#fff"/></svg>