<svg id="Layer_1" data-name="Layer 1" xmlns="http://www.w3.org/2000/svg" xmlns:xlink="http://www.w3.org/1999/xlink" viewBox="0 0 378.51 293.79"><defs><linearGradient id="linear-gradient" x1="99.91" y1="222.82" x2="124.31" y2="314.79" gradientUnits="userSpaceOnUse"><stop offset="0.01"/><stop offset="0.08" stop-opacity="0.69"/><stop offset="0.21" stop-opacity="0.32"/><stop offset="1" stop-opacity="0"/></linearGradient><linearGradient id="linear-gradient-2" x1="121.8" y1="139.99" x2="148.08" y2="133.98" xlink:href="#linear-gradient"/><linearGradient id="linear-gradient-3" x1="116.36" y1="129.87" x2="139.59" y2="119.45" xlink:href="#linear-gradient"/><linearGradient id="linear-gradient-4" x1="123.41" y1="102.55" x2="85.74" y2="123.81" xlink:href="#linear-gradient"/><linearGradient id="linear-gradient-5" x1="83.01" y1="148.98" x2="136.36" y2="140.34" xlink:href="#linear-gradient"/><linearGradient id="linear-gradient-6" x1="77.52" y1="132.46" x2="112.81" y2="159.86" xlink:href="#linear-gradient"/><linearGradient id="linear-gradient-7" x1="83.59" y1="133.35" x2="128.48" y2="109.57" xlink:href="#linear-gradient"/><linearGradient id="linear-gradient-8" x1="153.56" y1="156.3" x2="141.74" y2="120.07" xlink:href="#linear-gradient"/><linearGradient id="linear-gradient-9" x1="90.57" y1="183.78" x2="135.83" y2="193.72" xlink:href="#linear-gradient"/><linearGradient id="linear-gradient-10" x1="75.94" y1="221.88" x2="121.27" y2="237.51" xlink:href="#linear-gradient"/><linearGradient id="linear-gradient-11" x1="101.69" y1="218.24" x2="147.02" y2="233.87" xlink:href="#linear-gradient"/><linearGradient id="linear-gradient-12" x1="100.06" y1="185.19" x2="163.97" y2="190.96" xlink:href="#linear-gradient"/><linearGradient id="linear-gradient-14" x1="84.65" y1="267.91" x2="109.99" y2="239.76" xlink:href="#linear-gradient"/><linearGradient id="linear-gradient-15" x1="110.8" y1="264.32" x2="136.15" y2="236.17" xlink:href="#linear-gradient"/><linearGradient id="linear-gradient-16" x1="85.17" y1="175.59" x2="111.92" y2="157.01" xlink:href="#linear-gradient"/><linearGradient id="linear-gradient-17" x1="72.86" y1="180.48" x2="164.65" y2="153.45" xlink:href="#linear-gradient"/><linearGradient id="linear-gradient-18" x1="254.53" y1="258.2" x2="263.09" y2="-4.82" gradientUnits="userSpaceOnUse"><stop offset="0.01" stop-color="#fff"/><stop offset="0.13" stop-color="#fff" stop-opacity="0.69"/><stop offset="0.15" stop-color="#fff" stop-opacity="0.61"/><stop offset="0.2" stop-color="#fff" stop-opacity="0.47"/><stop offset="0.25" stop-color="#fff" stop-opacity="0.34"/><stop offset="0.3" stop-color="#fff" stop-opacity="0.23"/><stop offset="0.36" stop-color="#fff" stop-opacity="0.15"/><stop offset="0.44" stop-color="#fff" stop-opacity="0.08"/><stop offset="0.52" stop-color="#fff" stop-opacity="0.03"/><stop offset="0.65" stop-color="#fff" stop-opacity="0.01"/><stop offset="1" stop-color="#fff" stop-opacity="0"/></linearGradient></defs><title>8</title><path d="M388.33,262.06c-5.74,11.64-18.69,17.71-31.07,21.6a186.53,186.53,0,0,1-61.18,8.44c-25.56-.76-50.76-6.79-76.32-7.47C177,283.49,135.21,297.28,92.5,299c-22.43.87-46.85-2.46-62.89-18.17-21.51-21.09-20-56.9-8.06-84.57s32.11-51,45.06-78.24C73.13,104.3,77.74,89.78,84.12,76c9.64-20.76,23.57-39.89,42.21-53.18s42.24-20.3,64.83-16.58c11.2,1.84,21.8,6.19,31.9,11.47,2.76,1.44,5.48,2.95,8.17,4.5C241,27.9,250.49,36.6,261.37,40c13.06,4,27.7,2.58,41.06,6.67,14.3,4.37,28,12.45,36.25,24.9,19.21,28.88,3.83,69,15.71,101.58,4.08,11.18,11.21,21,18.13,30.81,7.4,10.47,14.57,21,17.59,33.33C392.13,245.46,392.07,254.47,388.33,262.06Z" transform="translate(-12.92 -5.29)" fill="#25c2a0" opacity="0.18" style="isolation:isolate"/><path d="M123.91,247.12a231.47,231.47,0,0,0-59.56,12.43c-1.37.48-3,1.29-3,2.75s1.5,2.34,2.85,2.82c5.83,2.08,12.16,2.16,18.35,2.21,23.94.23,48.4.37,71.09-7.26,2-.68,4.45-2.05,4.19-4.18s-2.84-2.84-4.92-3.12L117.94,248" transform="translate(-12.92 -5.29)" fill="url(#linear-gradient)"/><path d="M139.65,144.92a1.51,1.51,0,0,1-.89.37c-2,.18-5.27-2.56-6.4-3.45l-4.11-3.26c-2.63-2.08-5.1-5.48-2.5-8.6a3.15,3.15,0,0,1,.25-.28,3.69,3.69,0,0,1,.86-.67,3.65,3.65,0,0,1,2.24-.45c1.78.22,3.14,1.7,4.25,3.14,2.15,2.8,4,5.81,5.9,8.8a7,7,0,0,1,1,2.18A2.29,2.29,0,0,1,139.65,144.92Z" transform="translate(-12.92 -5.29)" fill="#fff"/><path d="M138.76,145.29c-2,.18-5.27-2.56-6.4-3.45l-4.11-3.26c-2.63-2.08-5.1-5.48-2.5-8.6a3.59,3.59,0,0,1,1.94-.31c1.8.22,3.15,1.7,4.25,3.14,2.15,2.81,4,5.81,5.9,8.81a6.64,6.64,0,0,1,1,2.17A2.63,2.63,0,0,1,138.76,145.29Z" transform="translate(-12.92 -5.29)" fill="url(#linear-gradient-2)"/><path d="M128.59,121a8,8,0,0,1,1.45,1.83l1.88,3a6,6,0,0,1,1.21,3.06.82.82,0,0,1-.18.59.89.89,0,0,1-.44.2,26.77,26.77,0,0,1-6.36.8A4.83,4.83,0,0,1,124,130a5,5,0,0,1-2.12-3.07c-.58-1.69-2.25-5.2-.38-6.6C123.19,119.11,127.08,119.69,128.59,121Z" transform="translate(-12.92 -5.29)" fill="#fff"/><path d="M128.87,121a8,8,0,0,1,1.45,1.83l1.88,3a6,6,0,0,1,1.21,3.06.82.82,0,0,1-.18.59.89.89,0,0,1-.44.2,26.77,26.77,0,0,1-6.36.8,4.83,4.83,0,0,1-2.14-.36,5,5,0,0,1-2.12-3.07c-.58-1.69-2.24-5.2-.38-6.6C123.48,119.11,127.36,119.69,128.87,121Z" transform="translate(-12.92 -5.29)" fill="url(#linear-gradient-3)"/><path d="M106.14,102.16a8.83,8.83,0,0,0,1.39,5,6.59,6.59,0,0,1,.65,1,4.73,4.73,0,0,1,.12,2.59c-.31,2.09-.66,4.31-2.07,5.89a.94.94,0,0,0-.2.29c-.09.28.16.56.38.76.71.65,1.44,1.28,2.18,1.91a11.44,11.44,0,0,0,2.52,1.74,6.05,6.05,0,0,0,4.17.29.69.69,0,0,0,.48-.32.73.73,0,0,0,0-.44,54.47,54.47,0,0,1-.85-5.54,4.31,4.31,0,0,1,0-1.19,6.25,6.25,0,0,1,.35-1,11.59,11.59,0,0,0,.6-3.08,18.06,18.06,0,0,0-.51-6.47A11.39,11.39,0,0,0,112,98.07c-1.14-1-3.3-2.1-4.72-.94a2.9,2.9,0,0,0-.73,1.65A14.84,14.84,0,0,0,106.14,102.16Z" transform="translate(-12.92 -5.29)" fill="#fff"/><path d="M106.14,102.16a8.83,8.83,0,0,0,1.39,5,6.59,6.59,0,0,1,.65,1,4.73,4.73,0,0,1,.12,2.59c-.31,2.09-.66,4.31-2.07,5.89a.94.94,0,0,0-.2.29c-.09.28.16.56.38.76.71.65,1.44,1.28,2.18,1.91a11.44,11.44,0,0,0,2.52,1.74,6.05,6.05,0,0,0,4.17.29.69.69,0,0,0,.48-.32.73.73,0,0,0,0-.44,54.47,54.47,0,0,1-.85-5.54,4.31,4.31,0,0,1,0-1.19,6.25,6.25,0,0,1,.35-1,11.59,11.59,0,0,0,.6-3.08,18.06,18.06,0,0,0-.51-6.47A11.39,11.39,0,0,0,112,98.07c-1.14-1-3.3-2.1-4.72-.94a2.9,2.9,0,0,0-.73,1.65A14.84,14.84,0,0,0,106.14,102.16Z" transform="translate(-12.92 -5.29)" fill="url(#linear-gradient-4)"/><path d="M104.85,95.36a4.46,4.46,0,0,1,.68-2.18l1.23-2.35a7.94,7.94,0,0,1,1.06-1.66,5.39,5.39,0,0,1,2.82-1.52,16.53,16.53,0,0,1,4.92-.19,12.73,12.73,0,0,1,2.61.37,8.5,8.5,0,0,1,5.25,5.27,20.64,20.64,0,0,1,1,7.59,24.7,24.7,0,0,1-.26,3.84,21.71,21.71,0,0,1-2,5.77,10.49,10.49,0,0,1-1.59,2.58,3.78,3.78,0,0,1-6,0,10.87,10.87,0,0,1-1.93-3.23,8.94,8.94,0,0,1-1-3.83,12.76,12.76,0,0,0,.15-2.3,5.44,5.44,0,0,0-1.22-2.4,8.58,8.58,0,0,0-2.11-2.26,15.34,15.34,0,0,1-2.16-1.64C105.77,96.66,104.89,96.41,104.85,95.36Z" transform="translate(-12.92 -5.29)" fill="#fff"/><path d="M127.9,150.6a15.15,15.15,0,0,1-.53,6,1.27,1.27,0,0,1-.39.62,1.51,1.51,0,0,1-.94.18,41,41,0,0,0-6.46.34c-1.27.17-2.53.4-3.8.59-.78.12-1.56.22-2.34.28a23.15,23.15,0,0,1-7.42-.64,2,2,0,0,1-.73-.3,2.17,2.17,0,0,1-.62-.87l-5-10.26a48.5,48.5,0,0,1-2.47-5.68A23.28,23.28,0,0,1,96,134.75a22.72,22.72,0,0,1,.08-3.69,2,2,0,0,1,2.06-2.24,23.7,23.7,0,0,0,3.48-.63,4.46,4.46,0,0,0,2.74-2.08c.75-1.45.28-3.23-.39-4.72a6.24,6.24,0,0,0-1.93-2.64c-.53-.37-1.25-.88-1-1.46a1,1,0,0,1,.37-.4c2.08-1.46,4.19-.57,5.86.9a9,9,0,0,0,7,2c1.43-.18.84-1.57.76-2.67,1.17.33,2.32.72,3.46,1.14a9.81,9.81,0,0,1,3,1.58,10.8,10.8,0,0,1,1.94,2.51c.57.9,1.13,1.8,1.63,2.73C129.26,133,127.67,142,127.9,150.6Z" transform="translate(-12.92 -5.29)" fill="#fff"/><path d="M115.78,158.3c-.78.12-1.56.22-2.34.28a23.15,23.15,0,0,1-7.42-.64,2,2,0,0,1-.73-.3,2.17,2.17,0,0,1-.62-.87l-5-10.26a48.5,48.5,0,0,1-2.47-5.68A23.28,23.28,0,0,1,96,134.75a5.57,5.57,0,0,1,2.93-1.1,21.22,21.22,0,0,0,4.59-1c.56-.2,5-1.83,5-2.46.3,2.14-1.78,3.78-3.57,5a3.14,3.14,0,0,0-1.3,1.33,3.23,3.23,0,0,0,0,1.82,128.27,128.27,0,0,0,3.54,13,9.05,9.05,0,0,0,1.8,3.55C110.78,156.76,113.65,156.92,115.78,158.3Z" transform="translate(-12.92 -5.29)" fill="url(#linear-gradient-5)"/><path d="M92.28,153.54a7.74,7.74,0,0,1-1.61,2.6,2.73,2.73,0,0,1-2.83.7,2.18,2.18,0,0,1-.73-.53,5.3,5.3,0,0,1-.91-3.44,75.27,75.27,0,0,1,2.38-18.47c.41-1.59.71-4.42,2.3-5.33a6.4,6.4,0,0,1,2.31-.2c2,.07,4.59.49,4.65,1.14C98.64,138.13,95.61,146.1,92.28,153.54Z" transform="translate(-12.92 -5.29)" fill="#fff"/><path d="M89.38,153.23a7.58,7.58,0,0,1-1.61,2.6,3.09,3.09,0,0,1-.66.48,5.3,5.3,0,0,1-.91-3.44,75.27,75.27,0,0,1,2.38-18.47c.41-1.59.71-4.42,2.3-5.33a6.4,6.4,0,0,1,2.31-.2c1,.21,1.71.48,1.75.83C95.75,137.82,92.73,145.79,89.38,153.23Z" transform="translate(-12.92 -5.29)" fill="url(#linear-gradient-6)"/><path d="M98.31,118a7.57,7.57,0,0,0-3.83,4.8,7.49,7.49,0,0,0,.63,6.18,5.93,5.93,0,0,0,7.38,2,6.21,6.21,0,0,0,1.22-.82,7.06,7.06,0,0,0,1.63-8.38C103.86,118.9,102,116.29,98.31,118Z" transform="translate(-12.92 -5.29)" fill="#fff"/><path d="M98.31,118a7.57,7.57,0,0,0-3.83,4.8,7.49,7.49,0,0,0,.63,6.18,5.93,5.93,0,0,0,7.38,2,6.21,6.21,0,0,0,1.22-.82,7.06,7.06,0,0,0,1.63-8.38C103.86,118.9,102,116.29,98.31,118Z" transform="translate(-12.92 -5.29)" fill="url(#linear-gradient-7)"/><path d="M98.17,133a3.39,3.39,0,0,0,2.21-2,17.55,17.55,0,0,0,1.81-4.37,5.83,5.83,0,0,0-.71-4.55,8.81,8.81,0,0,0-3.63-2.55,9.45,9.45,0,0,0-3.36-1.08A5.89,5.89,0,0,0,89,122.25a10.6,10.6,0,0,0,0,7,59.1,59.1,0,0,0,2.79,6.57c.49,1.11,2.64-1,2.91-1.21A12.77,12.77,0,0,1,98.17,133Z" transform="translate(-12.92 -5.29)" fill="#fff"/><path d="M91.84,155.13a7.62,7.62,0,0,0-2.65-.11A3.3,3.3,0,0,0,87,156.34a2.62,2.62,0,0,0-.44,1.44,1.46,1.46,0,0,0,.53,1.19,1.61,1.61,0,0,0,.86.23,4,4,0,0,0,2.8-.89,2.68,2.68,0,0,0,.88-2.71" transform="translate(-12.92 -5.29)" fill="#fff"/><path d="M159.52,134.26a3.58,3.58,0,0,1-.09.35,13.93,13.93,0,0,1-4.29,5.9,44.6,44.6,0,0,1-9.56,6.71c-2.54,1.33-6.06,2.47-8.18-.15l-.17-.22c-1.92-2.63.65-4.68,2.77-6.07,5.24-3.46,11.54-4.74,16.95-7.87.66-.38,1.52-.79,2.15-.36A1.62,1.62,0,0,1,159.52,134.26Z" transform="translate(-12.92 -5.29)" fill="#fff"/><path d="M159.52,134.26a3.58,3.58,0,0,1-.09.35,13.93,13.93,0,0,1-4.29,5.9,44.6,44.6,0,0,1-9.56,6.71c-2.54,1.33-6.06,2.47-8.18-.15-.12-1.85,1.81-3.33,3.45-4.42,5.23-3.46,11.53-4.74,17-7.86A2.77,2.77,0,0,1,159.52,134.26Z" transform="translate(-12.92 -5.29)" fill="url(#linear-gradient-8)"/><path d="M159,129.33c.31-1.86.91-3.89,2.53-4.85.18-.12.45,0,.53.23a.92.92,0,0,1-.06.65c-.23.64-.64,1.19-.91,1.82a2.16,2.16,0,0,0-.05,1.95,10.39,10.39,0,0,0,4.72-5.8,2.46,2.46,0,0,1,.41-.9.74.74,0,0,1,.88-.23,20.75,20.75,0,0,1-1.63,6.19l3.4-4.51a10.59,10.59,0,0,1-1.78,5.69,28.12,28.12,0,0,0,2.9-3.46c.4,2.17-1.12,4.17-2.55,5.86a10.38,10.38,0,0,1,2.65-1.95c-1.78,3.7-5.87,5.93-9.7,6.94-1.7.45-3.32.28-2.91-1.78S158.68,131.36,159,129.33Z" transform="translate(-12.92 -5.29)" fill="#fff"/><path d="M116.5,180.55a113.13,113.13,0,0,1-6,22.63,11.4,11.4,0,0,1-2.29,4.22,4.85,4.85,0,0,1-.93.75,3.77,3.77,0,0,1-3.46.42c-1.91-.84-2.42-3.25-2.61-5.31a104.08,104.08,0,0,1,.43-23.47c.45-3.33.91-9.33,3.77-11.65a5.92,5.92,0,0,1,5.33-.65,8.64,8.64,0,0,1,4,2.33C117.18,172.63,117,176.84,116.5,180.55Z" transform="translate(-12.92 -5.29)" fill="#fff"/><path d="M116.5,180.55a113.13,113.13,0,0,1-6,22.63,11.4,11.4,0,0,1-2.29,4.22,4.85,4.85,0,0,1-.93.75c-1.34-1.06-1.75-3.11-1.92-4.89a103.5,103.5,0,0,1,.44-23.47c.44-3.33.9-9.33,3.77-11.65a3.94,3.94,0,0,1,1.17-.65,8.64,8.64,0,0,1,4,2.33C117.18,172.63,117,176.84,116.5,180.55Z" transform="translate(-12.92 -5.29)" fill="url(#linear-gradient-9)"/><path d="M104.9,205.2a4.64,4.64,0,0,0-2,.72,4.36,4.36,0,0,0-1.5,1.36,3.2,3.2,0,0,0,.61,3.9,4.06,4.06,0,0,0,4,.79,2.93,2.93,0,0,0,.85-.42,3.29,3.29,0,0,0,1.08-2.44C108.05,207.31,107,205.08,104.9,205.2Z" transform="translate(-12.92 -5.29)" fill="#fff"/><path d="M107.19,215.27c-.33,7.78-2.79,15.3-5.21,22.69l-2.64,8a7,7,0,0,1-1.76,3.25,2.5,2.5,0,0,1-3.09.25.94.94,0,0,1-.25-.24Q95.59,235.48,97,221.7a25.65,25.65,0,0,1,1.43-7.19,10.37,10.37,0,0,1,4.25-4.66c1.48-.73,3-.56,4,1.57A8.09,8.09,0,0,1,107.19,215.27Z" transform="translate(-12.92 -5.29)" fill="#fff"/><path d="M104.43,215.27c-.32,7.78-2.78,15.3-5.2,22.69q-1.32,4-2.65,8a6.92,6.92,0,0,1-1.75,3.25,2.13,2.13,0,0,1-.34.25.94.94,0,0,1-.25-.24Q95.59,235.48,97,221.7a25.65,25.65,0,0,1,1.43-7.19,10.37,10.37,0,0,1,4.25-4.66,3.68,3.68,0,0,1,1.25,1.57A8.08,8.08,0,0,1,104.43,215.27Z" transform="translate(-12.92 -5.29)" fill="url(#linear-gradient-10)"/><path d="M130.17,211.64c-.32,7.78-2.77,15.3-5.2,22.69q-1.32,4-2.65,8a6.92,6.92,0,0,1-1.75,3.25,2.13,2.13,0,0,1-.34.25,1.12,1.12,0,0,1-.25-.24l2.73-27.56a25.31,25.31,0,0,1,1.44-7.19,10.26,10.26,0,0,1,4.25-4.66,3.76,3.76,0,0,1,1.25,1.57A8.21,8.21,0,0,1,130.17,211.64Z" transform="translate(-12.92 -5.29)" fill="url(#linear-gradient-11)"/><path d="M98.19,249.08a3.31,3.31,0,0,0-1.66-.92,3,3,0,0,0-1.92.62A3.27,3.27,0,0,0,93,250.57a3.51,3.51,0,0,0,.06,1.44l.61,3.48a1.51,1.51,0,0,0,.41.95,1.48,1.48,0,0,0,.69.26l3.23.62a18.31,18.31,0,0,0,4.54.49,2.71,2.71,0,0,0,1.47-.42,2.37,2.37,0,0,0,.77-1.34,2,2,0,0,0,0-1.36c-.45-1-1.22-.27-1.85-.6-.47-.25-.81-1.31-1.14-1.75A22,22,0,0,0,98.19,249.08Z" transform="translate(-12.92 -5.29)" fill="#fff"/><path d="M124,245.43a3.33,3.33,0,0,0-1.67-.93,3,3,0,0,0-1.91.62,3.23,3.23,0,0,0-1.61,1.79,3.51,3.51,0,0,0,0,1.44l.61,3.49a1.5,1.5,0,0,0,.41.94,1.57,1.57,0,0,0,.69.26l3.23.62a18.36,18.36,0,0,0,4.54.49,2.66,2.66,0,0,0,1.47-.42,2.31,2.31,0,0,0,.77-1.34,2,2,0,0,0-.05-1.36c-.45-1-1.21-.27-1.85-.6-.47-.25-.81-1.31-1.14-1.75A21.42,21.42,0,0,0,124,245.43Z" transform="translate(-12.92 -5.29)" fill="#fff"/><path d="M133.79,201.15a11.71,11.71,0,0,1-1.18,4.65,4.11,4.11,0,0,1-4,2.21,3.15,3.15,0,0,1-.6-.17c-1.66-.63-2.59-2.6-3.21-4.34a102.54,102.54,0,0,1-5.34-22.86c-.39-3.33-1.42-9.26.79-12.22a4.25,4.25,0,0,1,1.81-1.37,8.72,8.72,0,0,1,7.6.73c3.11,2.1,4,6.22,4.4,9.95A113.19,113.19,0,0,1,133.79,201.15Z" transform="translate(-12.92 -5.29)" fill="#fff"/><path d="M130.52,201.7a11.63,11.63,0,0,1-1.18,4.66,5,5,0,0,1-1.32,1.48c-1.66-.63-2.59-2.6-3.21-4.34a102.54,102.54,0,0,1-5.34-22.86c-.39-3.33-1.42-9.26.79-12.22a4.25,4.25,0,0,1,1.81-1.37,8.53,8.53,0,0,1,4.33,1.28c3.11,2.11,4,6.23,4.41,10A113.8,113.8,0,0,1,130.52,201.7Z" transform="translate(-12.92 -5.29)" fill="url(#linear-gradient-12)"/><path d="M130.65,201.54a4.64,4.64,0,0,0-2,.72,4.46,4.46,0,0,0-1.5,1.36,3.22,3.22,0,0,0,.61,3.9,4.06,4.06,0,0,0,4,.79,2.75,2.75,0,0,0,.86-.42,3.29,3.29,0,0,0,1.08-2.44C133.8,203.65,132.75,201.42,130.65,201.54Z" transform="translate(-12.92 -5.29)" fill="#fff"/><path d="M124.16,210.86a24.9,24.9,0,0,0-1.44,7.18L120,245.61a2.41,2.41,0,0,0,3.34,0,7,7,0,0,0,1.76-3.24l2.64-8c2.43-7.4,4.89-14.92,5.2-22.7a8.06,8.06,0,0,0-.52-3.84C130.15,203,125.32,208.08,124.16,210.86Z" transform="translate(-12.92 -5.29)" fill="#fff"/><path d="M130.17,211.64c-.32,7.78-2.77,15.3-5.2,22.69q-1.32,4-2.65,8a6.92,6.92,0,0,1-1.75,3.25,2.13,2.13,0,0,1-.34.25,1.12,1.12,0,0,1-.25-.24l2.73-27.56a25.31,25.31,0,0,1,1.44-7.19,10.26,10.26,0,0,1,4.25-4.66,3.76,3.76,0,0,1,1.25,1.57A8.21,8.21,0,0,1,130.17,211.64Z" transform="translate(-12.92 -5.29)" fill="url(#linear-gradient-11)"/><path d="M99.49,255.23a.46.46,0,0,0-.33.09c-.11.1-.1.28-.18.41s-.41.19-.65.16a6.56,6.56,0,0,1-2-.49,2.38,2.38,0,0,1-1.32-1.46c-.29-1.11.48-2.46-.23-3.36a1.31,1.31,0,0,0-2.12.24,2.48,2.48,0,0,0-.11,1.3q.16,1.57.39,3.15a.82.82,0,0,0,.91.84l5.91,1.09a4,4,0,0,0,1.41.08c.73-.13,1.58-1.07.83-1.74C101.53,255.1,100.1,255.22,99.49,255.23Z" transform="translate(-12.92 -5.29)" fill="url(#linear-gradient-14)"/><path d="M125.65,251.64a.46.46,0,0,0-.33.09c-.11.11-.1.29-.18.41s-.42.19-.65.16a6.27,6.27,0,0,1-2-.49,2.36,2.36,0,0,1-1.32-1.46c-.29-1.11.48-2.46-.23-3.36a1.32,1.32,0,0,0-2.12.24,2.48,2.48,0,0,0-.11,1.3c.11,1.05.23,2.1.38,3.15a1.13,1.13,0,0,0,.15.48,1.18,1.18,0,0,0,.77.37l5.91,1.08a3.91,3.91,0,0,0,1.4.09c.74-.13,1.59-1.08.83-1.74C127.69,251.51,126.26,251.63,125.65,251.64Z" transform="translate(-12.92 -5.29)" fill="url(#linear-gradient-15)"/><path d="M107.37,173c.57.51,1.22,1.19,1,1.93s-1.11.94-1.86,1a14.08,14.08,0,0,1-6.93-2.25,45.45,45.45,0,0,1-9.33-7c-2.11-2.07-4.33-5.18-2.23-8.07,1.92-2.63,4.67-.81,6.64.77C99.56,163.16,102.72,168.76,107.37,173Z" transform="translate(-12.92 -5.29)" fill="#fff"/><path d="M108.36,174.87c-.21.7-1.06.94-1.79,1h0a14.13,14.13,0,0,1-6.94-2.26,45.37,45.37,0,0,1-9.33-7c-2.1-2.05-4.3-5.13-2.25-8l0-.05c1.92-2.63,4.66-.81,6.64.77,4.9,3.91,8.06,9.52,12.69,13.7C107.94,173.46,108.59,174.14,108.36,174.87Z" transform="translate(-12.92 -5.29)" fill="#fff"/><path d="M106.57,175.83h0a14.13,14.13,0,0,1-6.94-2.26,45.37,45.37,0,0,1-9.33-7c-2.1-2.05-4.3-5.13-2.25-8,1.61-.35,3.42.91,4.84,2,4.9,3.92,8,9.52,12.7,13.71A2.63,2.63,0,0,1,106.57,175.83Z" transform="translate(-12.92 -5.29)" fill="url(#linear-gradient-16)"/><path d="M104.46,165.24a2.78,2.78,0,0,0,1.34,2.82c3.36,2.6,7.81,4,10.2,7.47a6.74,6.74,0,0,0,1.7,2.07,4.91,4.91,0,0,0,2.66.5,3.64,3.64,0,0,0,2.73-.78,3.25,3.25,0,0,0,.62-1.16,47.94,47.94,0,0,0,3.07-15.39c0-1.14-.1-2.5-1.1-3a3.21,3.21,0,0,0-1.77-.19l-13.45,1.1c-1.58.13-3.81-.19-4.87,1S104.46,163.89,104.46,165.24Z" transform="translate(-12.92 -5.29)" fill="#fff"/><path d="M113.22,160c-.54.72-1.11,1.42-1.7,2.1,2.86.72,4.76,3.42,6,6.1a19.49,19.49,0,0,1,2,8.22,1.14,1.14,0,0,1-.09.52.85.85,0,0,1-1,.34,2.53,2.53,0,0,1-.94-.65,70.73,70.73,0,0,0-9.78-7.65,8.2,8.2,0,0,1-1.56-1.18,4.84,4.84,0,0,1-1.1-2c-.48-1.64-.26-4.61,1.42-5.6S111.44,160,113.22,160Z" transform="translate(-12.92 -5.29)" fill="url(#linear-gradient-17)"/><path d="M111.35,172.82c1.86-.27,4-.33,5.39.91a.4.4,0,0,1-.06.58.92.92,0,0,1-.63.15c-.68,0-1.34-.24-2-.31a2.17,2.17,0,0,0-1.88.55,10.4,10.4,0,0,0,7,2.71,2.42,2.42,0,0,1,1,.11.74.74,0,0,1,.5.76,20.84,20.84,0,0,1-6.4.37l5.35,1.83a10.55,10.55,0,0,1-6,.07,29.83,29.83,0,0,0,4.19,1.69c-1.94,1-4.32.22-6.36-.62a10.09,10.09,0,0,1,2.66,1.92c-4.06-.56-7.44-3.76-9.58-7.09-1-1.48-1.29-3.07.79-3.32S109.31,173.13,111.35,172.82Z" transform="translate(-12.92 -5.29)" fill="#fff"/><path d="M117.68,100.43a1.75,1.75,0,0,0-1.54.42A1.63,1.63,0,0,0,116,102c0,.45.09.89.16,1.33a.68.68,0,0,0,.09.25.51.51,0,0,0,.34.15,28.19,28.19,0,0,0,7.39.47.93.93,0,0,0,.53-.14,1,1,0,0,0,.26-.67,18.56,18.56,0,0,0,0-2.69c0-.63-.56-.37-1-.32-.67.08-1.36.09-2,.11C120.4,100.5,119,100.49,117.68,100.43Z" transform="translate(-12.92 -5.29)" fill="#25c2a0"/><ellipse cx="258.02" cy="255.77" rx="85.73" ry="24.77" fill="#282328" opacity="0.16"/><ellipse cx="258.02" cy="243.15" rx="77.07" ry="18.18" fill="#25c2a0"/><path d="M372.52,203.91l-21.32,44A18.37,18.37,0,0,1,341,257.18c-20.94,7.67-84.63,26.86-140.06.79a18.31,18.31,0,0,1-9.45-10.54L143.15,109.5c10.56-6.78,22-12.43,29.67-22.25,9.06-11.6,11.26-27.06,18-40.17s18.58-23.54,32.26-29.33c2.76,1.44,5.48,2.95,8.17,4.5C241,27.9,250.49,36.6,261.37,40c13.06,4,27.7,2.58,41.06,6.67,14.3,4.37,28,12.45,36.25,24.9,19.21,28.88,3.83,69,15.71,101.58C358.47,184.28,365.6,194.08,372.52,203.91Z" transform="translate(-12.92 -5.29)" fill="url(#linear-gradient-18)"/><path d="M285.13,75A9.36,9.36,0,0,1,267,78.15a9.16,9.16,0,0,1-.54-3.11,9.36,9.36,0,0,1,9.36-9.35,9.24,9.24,0,0,1,6,2.18A9.34,9.34,0,0,1,285.13,75Z" transform="translate(-12.92 -5.29)" fill="#25c2a0" opacity="0.82" style="isolation:isolate"/><path d="M282.31,71A9.36,9.36,0,0,1,273,80.34a9.25,9.25,0,0,1-6-2.19,9.16,9.16,0,0,1-.54-3.11,9.36,9.36,0,0,1,9.36-9.35,9.24,9.24,0,0,1,6,2.18A9.16,9.16,0,0,1,282.31,71Z" transform="translate(-12.92 -5.29)" fill="#fff" opacity="0.55" style="isolation:isolate"/><path d="M242.45,155.49a4.12,4.12,0,0,1,5.68,5.8,4,4,0,0,1-1,1,4.12,4.12,0,1,1-4.69-6.77Z" transform="translate(-12.92 -5.29)" fill="#25c2a0" opacity="0.82" style="isolation:isolate"/><path d="M241.69,157.53a4.11,4.11,0,0,1,6.44,3.76,4,4,0,0,1-1,1,4.12,4.12,0,0,1-6.45-3.76A4,4,0,0,1,241.69,157.53Z" transform="translate(-12.92 -5.29)" fill="#fff" opacity="0.55" style="isolation:isolate"/><path d="M239.53,125.2a4.12,4.12,0,0,1,5.68,5.8,3.81,3.81,0,0,1-1,1,4.11,4.11,0,0,1-5.73-1,4.16,4.16,0,0,1-.72-2.72A4.1,4.1,0,0,1,239.53,125.2Z" transform="translate(-12.92 -5.29)" fill="#25c2a0" opacity="0.82" style="isolation:isolate"/><path d="M238.77,127.24a4.11,4.11,0,0,1,6.44,3.76,3.81,3.81,0,0,1-1,1,4.11,4.11,0,0,1-5.73-1,4.16,4.16,0,0,1-.72-2.72A4,4,0,0,1,238.77,127.24Z" transform="translate(-12.92 -5.29)" fill="#fff" opacity="0.55" style="isolation:isolate"/><g opacity="0.82" style="isolation:isolate"><polygon points="234.5 152.47 234.01 151.12 261.12 141.31 251.67 126.1 277.29 119.17 277.66 120.56 253.91 126.99 263.29 142.06 234.5 152.47" fill="#25c2a0"/></g><polygon points="252.2 126.95 245.9 117.87 231.63 123.03 231.14 121.67 246.45 116.14 253.38 126.14 252.2 126.95" fill="#25c2a0"/><path d="M291.19,116.83a8.24,8.24,0,0,1,11.37,11.6,8,8,0,0,1-2,1.94,8.24,8.24,0,0,1-9.39-13.54Z" transform="translate(-12.92 -5.29)" fill="#25c2a0" opacity="0.82" style="isolation:isolate"/><path d="M289.67,120.91a8.23,8.23,0,0,1,12.89,7.52,8,8,0,0,1-2,1.94,8.24,8.24,0,0,1-12.9-7.51A8.39,8.39,0,0,1,289.67,120.91Z" transform="translate(-12.92 -5.29)" fill="#fff" opacity="0.55" style="isolation:isolate"/><g opacity="0.82" style="isolation:isolate"><polygon points="266.58 123.01 249.35 93.43 268.56 85.2 263.76 76.45 265.02 75.76 270.58 85.9 251.41 94.11 267.82 122.28 266.58 123.01" fill="#25c2a0"/></g><path d="M278.13,178.56A8.69,8.69,0,1,1,273,183.8,8.69,8.69,0,0,1,278.13,178.56Z" transform="translate(-12.92 -5.29)" fill="#25c2a0" opacity="0.82" style="isolation:isolate"/><path d="M275.51,182.32a8.68,8.68,0,0,1,11.16,5.12,8.58,8.58,0,0,1,0,5.93A8.68,8.68,0,0,1,273,183.8,8.65,8.65,0,0,1,275.51,182.32Z" transform="translate(-12.92 -5.29)" fill="#fff" opacity="0.55" style="isolation:isolate"/><path d="M296.51,194.93a4.35,4.35,0,0,1,4.3,7.41,4.21,4.21,0,0,1-1.27.73,4.34,4.34,0,1,1-3-8.14Z" transform="translate(-12.92 -5.29)" fill="#25c2a0" opacity="0.82" style="isolation:isolate"/><path d="M295.21,196.81a4.34,4.34,0,0,1,5.6,5.53,4.21,4.21,0,0,1-1.27.73,4.35,4.35,0,0,1-5.61-5.52A4.38,4.38,0,0,1,295.21,196.81Z" transform="translate(-12.92 -5.29)" fill="#fff" opacity="0.55" style="isolation:isolate"/><path d="M272.1,206.5a4.47,4.47,0,1,1-2.63,5.74,4.42,4.42,0,0,1,0-3A4.47,4.47,0,0,1,272.1,206.5Z" transform="translate(-12.92 -5.29)" fill="#25c2a0" opacity="0.82" style="isolation:isolate"/><path d="M270.75,208.44a3.94,3.94,0,1,1-1.28,3.8,4.42,4.42,0,0,1,0-3A4.37,4.37,0,0,1,270.75,208.44Z" transform="translate(-12.92 -5.29)" fill="#fff" opacity="0.55" style="isolation:isolate"/><g opacity="0.82" style="isolation:isolate"><polygon points="273.57 207.5 266.69 200.27 263.57 203.87 263.06 203.42 266.67 199.25 273.53 206.46 283.41 194.44 283.94 194.87 273.57 207.5" fill="#25c2a0"/></g></svg>