<?xml version="1.0" standalone="no"?><!DOCTYPE svg PUBLIC "-//W3C//DTD SVG 1.1//EN" "http://www.w3.org/Graphics/SVG/1.1/DTD/svg11.dtd"><svg t="1636526322687" class="icon" viewBox="0 0 1024 1024" version="1.1" xmlns="http://www.w3.org/2000/svg" p-id="12223" xmlns:xlink="http://www.w3.org/1999/xlink" width="200" height="200"><defs><style type="text/css"></style></defs><path d="M511.331 95.05c230.302 0 417.003 186.696 417.003 416.999 0 230.3-186.701 416.997-417.003 416.997-230.3 0-416.997-186.697-416.997-416.997C94.333 281.746 281.031 95.05 511.331 95.05z" fill="#FFA820" p-id="12224"></path><path d="M928.333 512.049c0-230.303-186.701-416.999-417.003-416.999-230.3 0-416.997 186.696-416.997 416.999 0 230.3 186.698 416.997 416.997 416.997 230.302 0.001 417.003-186.697 417.003-416.997zM498.74 881.896c-211.399 0-382.771-171.372-382.771-382.771S287.342 116.354 498.74 116.354s382.771 171.372 382.771 382.771S710.139 881.896 498.74 881.896z" fill="#FEAC33" p-id="12225"></path><path d="M498.74 116.354c-211.399 0-382.771 171.372-382.771 382.771S287.342 881.896 498.74 881.896s382.771-171.372 382.771-382.771S710.139 116.354 498.74 116.354z m-16.297 695.099c-182.432 0-330.322-147.89-330.322-330.322S300.011 150.81 482.443 150.81 812.765 298.7 812.765 481.132s-147.89 330.321-330.322 330.321z" fill="#FEB133" p-id="12226"></path><path d="M482.443 150.81c-182.432 0-330.322 147.89-330.322 330.322s147.89 330.322 330.322 330.322 330.322-147.89 330.322-330.322S664.875 150.81 482.443 150.81z m-16.297 590.201c-153.464 0-277.872-124.408-277.872-277.872s124.408-277.872 277.872-277.872 277.872 124.408 277.872 277.872S619.61 741.011 466.146 741.011z" fill="#FEB633" p-id="12227"></path><path d="M466.146 185.267c-153.464 0-277.872 124.408-277.872 277.872s124.408 277.872 277.872 277.872 277.872-124.408 277.872-277.872S619.61 185.267 466.146 185.267z m-16.298 485.301c-124.497 0-225.423-100.925-225.423-225.423S325.35 219.722 449.848 219.722s225.423 100.925 225.423 225.423-100.925 225.423-225.423 225.423z" fill="#FFBC34" p-id="12228"></path><path d="M449.848 219.723c-124.497 0-225.423 100.925-225.423 225.423S325.35 670.569 449.848 670.569s225.423-100.925 225.423-225.423-100.925-225.423-225.423-225.423z m-16.297 380.402c-95.53 0-172.973-77.443-172.973-172.973s77.443-172.973 172.973-172.973 172.973 77.443 172.973 172.973-77.443 172.973-172.973 172.973z" fill="#FFC134" p-id="12229"></path><path d="M433.551 254.179c-95.53 0-172.973 77.443-172.973 172.973s77.443 172.973 172.973 172.973 172.973-77.443 172.973-172.973-77.443-172.973-172.973-172.973z m-16.297 275.503c-66.563 0-120.524-53.96-120.524-120.524s53.96-120.524 120.524-120.524 120.524 53.96 120.524 120.524-53.961 120.524-120.524 120.524z" fill="#FFC634" p-id="12230"></path><path d="M417.254 409.159m-120.524 0a120.524 120.524 0 1 0 241.048 0 120.524 120.524 0 1 0-241.048 0Z" fill="#FFCB34" p-id="12231"></path><path d="M511.331 113.05c53.872 0 106.124 10.547 155.303 31.348 47.511 20.095 90.184 48.867 126.833 85.516 36.65 36.649 65.422 79.322 85.518 126.832 20.801 49.179 31.348 101.431 31.348 155.303s-10.547 106.123-31.348 155.302c-20.096 47.51-48.868 90.182-85.518 126.831s-79.323 65.421-126.833 85.516c-49.179 20.801-101.431 31.348-155.303 31.348s-106.123-10.547-155.302-31.348c-47.51-20.095-90.182-48.867-126.832-85.516-36.649-36.649-65.421-79.321-85.516-126.831-20.801-49.179-31.348-101.43-31.348-155.302 0-53.873 10.547-106.124 31.348-155.304 20.095-47.51 48.867-90.183 85.516-126.832 36.649-36.649 79.321-65.421 126.832-85.516 49.179-20.8 101.43-31.347 155.302-31.347m0-18c-230.3 0-416.997 186.696-416.997 416.999 0 230.3 186.698 416.997 416.997 416.997 230.302 0 417.003-186.697 417.003-416.997C928.333 281.746 741.632 95.05 511.331 95.05z" fill="#FFA820" p-id="12232"></path><path d="M363.643 444.741c33.584 0 60.812-31.115 60.812-69.5 0-38.383-27.228-69.5-60.812-69.5-33.586 0-60.812 31.117-60.812 69.5 0 38.385 27.226 69.5 60.812 69.5z m295.373 0c33.586 0 60.812-31.115 60.812-69.5 0-38.383-27.227-69.5-60.812-69.5-33.584 0-60.812 31.117-60.812 69.5-0.001 38.385 27.227 69.5 60.812 69.5z m26.396 86.875h-348.14c-21.656 0-37.938 19.463-33.77 40.381 19.106 95.826 104.896 168.118 207.843 168.118 102.943 0 188.736-72.292 207.838-168.118 4.169-20.917-12.114-40.381-33.771-40.381z" fill="#ffffff" p-id="12233" data-spm-anchor-id="a313x.7781069.0.i0" class="selected"></path><path d="M219.411 321.112a17.917 17.917 0 0 1-10.308-3.256c-8.144-5.701-10.123-16.925-4.421-25.069 42.735-61.039 94.315-94.005 96.49-95.379 8.403-5.307 19.522-2.798 24.831 5.608 5.305 8.399 2.801 19.507-5.591 24.82-0.695 0.443-47.933 30.885-86.24 85.599-3.502 5-9.087 7.677-14.761 7.677zM181.55 381.497c-2.972 0-5.984-0.737-8.763-2.29-8.678-4.849-11.783-15.815-6.934-24.493l5.487-9.82c4.849-8.678 15.815-11.783 24.493-6.934s11.783 15.815 6.934 24.493l-5.487 9.82c-3.297 5.9-9.42 9.224-15.73 9.224z" fill="#FFFFFF" p-id="12234"></path></svg>